<?xml version="1.0" standalone="no"?>
<!DOCTYPE svg PUBLIC "-//W3C//DTD SVG 20010904//EN"
 "http://www.w3.org/TR/2001/REC-SVG-20010904/DTD/svg10.dtd">
<svg version="1.0" xmlns="http://www.w3.org/2000/svg"
 width="450.000000pt" height="265.000000pt" viewBox="0 0 450.000000 265.000000"
 preserveAspectRatio="xMidYMid meet">

<g transform="translate(0.000000,265.000000) scale(0.100000,-0.100000)"
fill="#000000" stroke="none">
<path d="M2032 1701 c-13 -8 -21 -33 -47 -146 -8 -33 -21 -87 -29 -120 -8 -33
-24 -103 -36 -155 -50 -216 -50 -220 -2 -220 36 0 47 13 56 65 4 22 12 57 18
78 11 37 11 37 64 37 59 0 52 8 74 -94 15 -71 26 -86 61 -86 49 0 51 -21 -30
335 -23 99 -46 205 -53 235 -14 69 -40 94 -76 71z m37 -263 c5 -18 11 -51 13
-73 3 -37 1 -40 -24 -43 -25 -3 -28 0 -28 26 0 49 12 122 21 122 4 0 12 -15
18 -32z"/>
<path d="M2332 1702 c-9 -7 -12 -78 -10 -323 l3 -314 126 -3 127 -3 6 25 c12
48 0 56 -83 56 -47 0 -82 5 -89 12 -9 9 -12 85 -12 279 l0 267 -22 6 c-29 7
-30 7 -46 -2z"/>
<path d="M2678 1699 c-17 -9 -18 -35 -18 -312 0 -166 4 -308 9 -315 5 -8 22
-12 42 -10 l34 3 3 310 c2 283 1 311 -15 323 -20 14 -32 15 -55 1z"/>
<path d="M2852 1702 c-9 -7 -12 -78 -10 -323 l3 -314 35 0 35 0 5 135 5 135
60 3 c67 3 85 14 85 48 0 30 -13 37 -78 40 -30 2 -59 7 -64 12 -5 5 -8 47 -6
93 l3 84 80 5 c44 3 86 9 93 13 19 13 14 55 -7 67 -23 12 -220 13 -239 2z"/>
<path d="M3222 1702 c-9 -6 -12 -78 -10 -323 l3 -314 35 0 35 0 3 132 c3 145
5 149 68 137 57 -11 73 -44 76 -165 l3 -104 29 -3 c16 -2 32 2 37 10 5 7 9 60
9 118 0 78 -5 115 -18 144 -17 39 -17 40 6 85 20 39 23 57 19 116 -8 135 -41
166 -184 172 -54 2 -104 0 -111 -5z m186 -98 c31 -21 32 -119 2 -152 -23 -24
-56 -35 -91 -30 -23 3 -24 7 -27 87 -2 46 -1 90 2 98 7 18 86 17 114 -3z"/>
<path d="M3609 1683 c-7 -18 -9 -116 -7 -273 3 -225 5 -248 23 -280 40 -68
137 -90 216 -49 66 33 69 50 69 353 0 256 -1 265 -20 271 -11 3 -29 4 -39 0
-19 -6 -20 -20 -23 -266 -3 -244 -4 -262 -22 -275 -31 -22 -82 -18 -100 8 -14
19 -16 62 -16 270 0 234 -1 248 -19 258 -32 17 -51 12 -62 -17z"/>
<path d="M4032 1698 c-18 -18 -14 -56 7 -68 11 -5 36 -10 55 -10 22 0 36 -5
36 -12 1 -7 1 -123 1 -258 1 -135 5 -255 10 -267 11 -30 63 -32 79 -4 6 12 10
120 10 280 l0 261 36 0 c47 0 74 16 74 43 0 42 -16 47 -160 47 -92 0 -140 -4
-148 -12z"/>
<path d="M3557 924 c-11 -11 -8 -154 3 -154 6 0 10 14 10 30 0 27 3 30 30 30
20 0 30 5 30 15 0 10 -10 15 -30 15 -23 0 -30 5 -30 19 0 16 8 20 38 23 20 2
37 8 37 13 0 12 -77 19 -88 9z"/>
<path d="M2113 908 c-15 -24 -53 -123 -53 -138 1 -11 6 -9 19 8 23 27 68 29
87 5 21 -28 18 2 -8 75 -22 63 -30 72 -45 50z m19 -80 c-13 -13 -26 8 -17 30
6 16 7 16 17 -1 7 -13 7 -22 0 -29z"/>
<path d="M2230 840 c0 -52 4 -79 10 -75 6 3 10 37 10 75 0 38 -4 72 -10 75 -6
4 -10 -23 -10 -75z"/>
<path d="M2893 890 c-7 -17 -7 -32 -2 -36 5 -3 9 -23 9 -44 0 -62 18 -56 22 7
6 98 -7 131 -29 73z"/>
<path d="M3958 898 c-7 -37 6 -131 19 -135 12 -4 22 90 13 128 -8 31 -27 35
-32 7z"/>
<path d="M2383 872 c-16 -2 -23 -12 -28 -42 -4 -22 -3 -45 2 -52 5 -9 10 -2
13 21 10 66 59 65 60 -1 0 -16 5 -28 10 -28 6 0 10 13 10 29 0 16 7 35 16 42
14 11 18 10 30 -6 8 -10 14 -29 14 -42 0 -13 5 -23 10 -23 15 0 12 63 -3 84
-13 17 -77 26 -134 18z"/>
<path d="M2613 870 c-30 -12 -39 -54 -19 -85 16 -25 39 -31 70 -19 28 11 17
24 -19 24 -19 0 -35 5 -35 10 0 6 16 10 35 10 45 0 58 25 26 52 -26 20 -27 20
-58 8z m41 -16 c26 -10 18 -24 -14 -24 -29 0 -38 9 -23 23 8 9 17 9 37 1z"/>
<path d="M3002 864 c-45 -31 -20 -103 35 -104 23 0 53 34 53 60 0 42 -53 69
-88 44z m57 -28 c17 -20 2 -46 -25 -46 -26 0 -40 20 -30 45 7 19 40 20 55 1z"/>
<path d="M3158 872 c-24 -5 -33 -35 -13 -47 49 -30 51 -34 16 -35 -29 0 -32
-2 -21 -15 17 -21 44 -19 66 6 18 20 18 21 -1 35 -10 8 -25 14 -32 14 -7 0
-13 5 -13 10 0 6 11 10 25 10 14 0 25 4 25 9 0 11 -29 18 -52 13z"/>
<path d="M4061 869 c-28 -11 -37 -53 -17 -84 13 -20 23 -24 56 -22 l40 2 0 51
c0 49 -1 52 -29 56 -16 2 -38 1 -50 -3z m54 -49 c0 -20 -6 -26 -27 -28 -25 -3
-28 0 -28 28 0 28 3 31 28 28 21 -2 27 -8 27 -28z"/>
<path d="M2290 820 c0 -32 4 -49 10 -45 6 3 10 24 10 45 0 21 -4 42 -10 45 -6
4 -10 -13 -10 -45z"/>
<path d="M2740 820 c0 -27 5 -50 10 -50 6 0 10 12 10 28 0 61 46 70 52 10 3
-38 21 -41 26 -4 6 44 -14 66 -58 66 l-40 0 0 -50z"/>
<path d="M3320 832 c0 -38 16 -62 50 -75 11 -4 9 -7 -7 -12 -30 -9 -29 -25 0
-25 39 0 57 30 57 93 0 63 -17 78 -22 20 -3 -33 -6 -38 -28 -38 -22 0 -25 5
-28 38 -4 49 -22 48 -22 -1z"/>
<path d="M3690 819 c0 -58 20 -64 31 -10 4 18 15 38 25 46 17 13 16 14 -18 15
l-38 0 0 -51z"/>
<path d="M3800 831 c0 -63 47 -93 83 -53 18 20 23 92 7 92 -5 0 -10 -15 -10
-33 0 -42 -16 -60 -42 -46 -12 7 -18 21 -18 44 0 19 -4 35 -10 35 -5 0 -10
-18 -10 -39z"/>
<path d="M4193 853 c-4 -10 0 -21 11 -27 50 -30 53 -35 19 -36 -18 0 -33 -4
-33 -10 0 -16 49 -23 65 -10 24 20 18 49 -10 56 -14 3 -25 10 -25 15 0 5 11 9
25 9 14 0 25 5 25 10 0 18 -70 12 -77 -7z"/>
<path d="M2794 633 c-34 -6 -58 -40 -58 -80 0 -62 70 -102 125 -72 11 5 17 14
14 20 -4 6 -13 5 -25 -1 -28 -15 -44 -12 -68 10 -25 24 -28 58 -8 85 11 15 25
19 62 17 27 -1 44 2 38 7 -12 11 -54 19 -80 14z"/>
<path d="M2448 624 c-5 -4 -8 -16 -8 -26 0 -14 -8 -18 -35 -18 -28 0 -37 -5
-49 -29 -14 -27 -14 -31 5 -55 17 -22 27 -26 57 -23 34 4 37 7 40 40 5 53 -2
120 -10 111z m-14 -86 c16 -27 -14 -54 -43 -39 -24 13 -27 31 -9 49 16 16 38
12 52 -10z"/>
<path d="M2930 548 c0 -81 15 -101 22 -28 2 25 8 36 22 38 24 5 36 -14 36 -56
0 -20 4 -31 10 -27 13 8 13 61 0 86 -7 12 -21 19 -40 19 -25 0 -30 4 -30 25 0
14 -4 25 -10 25 -6 0 -10 -34 -10 -82z"/>
<path d="M2522 568 c-17 -17 -15 -64 4 -82 17 -17 42 -20 71 -9 14 6 11 9 -16
13 -51 7 -52 30 -2 30 42 0 48 8 31 41 -12 22 -68 27 -88 7z m66 -15 c2 -8 -6
-13 -22 -13 -25 0 -33 10 -19 24 10 10 36 3 41 -11z"/>
<path d="M3090 565 c-18 -22 -15 -66 5 -82 10 -7 34 -12 52 -10 37 2 47 21 41
73 -3 26 -7 29 -44 32 -28 2 -45 -2 -54 -13z m68 -31 c4 -29 -23 -51 -43 -34
-16 13 -20 42 -8 54 14 14 48 1 51 -20z"/>
<path d="M3240 505 c0 -41 4 -75 9 -75 5 0 11 10 13 23 2 17 9 21 28 19 34 -4
63 19 63 51 0 41 -20 57 -69 57 l-44 0 0 -75z m84 33 c8 -14 7 -22 -7 -35 -16
-16 -18 -16 -39 4 -18 19 -19 24 -8 38 16 19 39 16 54 -7z"/>
<path d="M3398 554 c-10 -21 -9 -31 3 -52 12 -22 22 -27 54 -27 l40 1 3 52 3
52 -46 0 c-39 0 -47 -4 -57 -26z m72 -9 c15 -18 7 -43 -16 -52 -24 -9 -46 24
-33 48 12 23 32 24 49 4z"/>
<path d="M3554 566 c-8 -22 0 -91 11 -91 6 0 11 14 13 30 2 17 13 40 25 53
l20 22 -32 0 c-18 0 -34 -6 -37 -14z"/>
<path d="M3663 572 c-22 -14 -25 -57 -5 -82 16 -19 24 -22 55 -16 37 7 37 7
37 56 l0 50 -37 0 c-21 0 -43 -4 -50 -8z m64 -28 c7 -18 -6 -45 -24 -51 -6 -2
-18 3 -27 12 -12 12 -13 21 -6 36 13 23 48 25 57 3z"/>
<path d="M3810 555 c-10 -19 -11 -30 -2 -50 15 -31 34 -40 70 -29 l27 8 -34 5
c-65 11 -64 71 1 71 17 0 27 4 23 10 -3 6 -21 10 -39 10 -25 0 -36 -6 -46 -25z"/>
<path d="M3950 561 c-15 -29 -12 -56 8 -74 50 -46 114 13 82 74 -7 13 -21 19
-45 19 -24 0 -38 -6 -45 -19z m74 -23 c8 -14 7 -21 -6 -34 -30 -30 -75 9 -48
42 16 18 39 15 54 -8z"/>
<path d="M3549 339 c-22 -22 -23 -29 -6 -53 9 -12 22 -16 42 -13 l30 4 -32 2
c-29 1 -33 4 -33 30 0 26 4 30 33 33 29 3 30 4 9 10 -16 4 -29 1 -43 -13z"/>
<path d="M2605 340 c-8 -13 3 -30 18 -30 7 0 19 -5 27 -10 13 -9 13 -11 0 -21
-12 -9 -12 -10 -1 -7 26 7 23 27 -6 40 -38 17 -39 18 -23 28 9 6 10 10 3 10
-6 0 -15 -4 -18 -10z"/>
<path d="M2700 340 c0 -5 7 -7 15 -4 10 4 15 0 15 -11 0 -11 -5 -15 -15 -11
-9 3 -15 0 -15 -9 0 -23 44 -1 48 24 3 17 -2 21 -22 21 -14 0 -26 -4 -26 -10z"/>
<path d="M2770 308 c0 -38 1 -40 13 -23 8 10 19 15 24 12 11 -7 25 31 17 45
-3 4 -16 8 -30 8 -22 0 -24 -4 -24 -42z m40 22 c0 -5 -4 -10 -10 -10 -5 0 -10
5 -10 10 0 6 5 10 10 10 6 0 10 -4 10 -10z"/>
<path d="M3110 309 c0 -39 1 -41 14 -24 11 15 17 17 27 8 11 -9 14 -5 14 20 0
27 -4 32 -27 35 -27 3 -28 1 -28 -39z m40 21 c0 -5 -4 -10 -10 -10 -5 0 -10 5
-10 10 0 6 5 10 10 10 6 0 10 -4 10 -10z"/>
<path d="M3366 335 c-3 -8 -15 -15 -26 -15 -15 0 -20 -7 -20 -25 0 -21 5 -25
30 -25 28 0 30 2 30 40 0 42 -4 50 -14 25z m-3 -40 c1 -5 -6 -11 -15 -13 -11
-2 -18 3 -18 13 0 17 30 18 33 0z"/>
<path d="M3645 337 c3 -11 8 -30 11 -43 8 -33 23 -27 40 16 l14 35 -19 -25
c-21 -27 -21 -27 -39 10 -7 14 -10 17 -7 7z"/>
<path d="M3201 308 c-1 -29 3 -38 15 -38 12 0 14 3 6 13 -5 6 -12 23 -15 37
-3 18 -5 15 -6 -12z"/>
<path d="M2923 323 c-16 -3 -23 -11 -23 -29 0 -20 5 -24 30 -24 27 0 30 3 30
30 0 17 -3 29 -7 29 -5 -1 -18 -4 -30 -6z m17 -28 c0 -8 -7 -15 -15 -15 -8 0
-15 7 -15 15 0 8 7 15 15 15 8 0 15 -7 15 -15z"/>
<path d="M2984 305 c-8 -21 4 -35 29 -34 12 0 16 3 10 6 -23 9 -15 32 9 25 14
-3 19 -2 14 6 -10 17 -56 15 -62 -3z"/>
<path d="M3410 295 c0 -19 5 -25 22 -25 21 0 21 1 3 13 -12 10 -14 16 -7 21 7
4 17 4 22 1 6 -3 10 -1 10 4 0 6 -11 11 -25 11 -20 0 -25 -5 -25 -25z"/>
<path d="M2608 273 c7 -3 16 -2 19 1 4 3 -2 6 -13 5 -11 0 -14 -3 -6 -6z"/>
</g>
</svg>
